<svg xmlns="http://www.w3.org/2000/svg" viewBox="0 0 1038 919.614"><defs><style>.cls-1{fill:#ae272d;}.cls-2{fill:#fdd015;}.cls-3{fill:#fff;opacity:0.54;}.cls-4{fill:none;stroke:#000;stroke-miterlimit:10;stroke-width:29px;}</style></defs><g id="Layer_2" data-name="Layer 2"><path class="cls-1" d="M1000.437,467.031h0v0c-17.434-29.8-21.992-78.657-64.824-76.788-42.458,1.852-37.882,51.563-52.34,81.2-3.559,7.295-6.392,15.563-6.973,23.57-2.681,36.989-24.651,44.226-57.806,43.7-33.292-.53-47.028-6.406-58.97-44.842-17.687-56.931,3.238-82.232,45.7-108.291,33.575-20.607,67.7-40.879,96.43-68.967,23.225-22.7,29.222-39.5.073-64.031-26.259-22.095-49.873-48.09-73.646-73.406-21.871-23.29-53.187-38.464-81.87-54.5-22.123-12.369-47.161-9.515-64.6,8.331-17.539,17.951-9.029,40,1.937,59.489,8.074,14.35,17.549,27.96,25,42.6,13.785,27.085-3.362,87.7-35.647,104.213-28.325,14.491-61.916,17.971-87.051-12.52h0l-.966-37.414h0c16.861-24.837,7.371-55.069,16.8-81.427h0l3.687-46.995h0c13.362-29.982,7.561-46.129-24.55-65.471C527.4,63.3,480.806,90.233,431.32,96.852l-36.334,4.325h0c-28.553,7.319-61.578,11.093-63.959,49.432-2.453,39.484,35.05,42.1,58.979,56.524,5.386,3.247,12.5,4.263,18.972,5,29.742,3.4,46.182,20.945,53.466,48.65q1.842,23.117,3.685,46.234h0C444.7,356.893,390.664,365.838,358.8,325.246c-28.352-36.122-57.542-71.591-86.362-107.349-11.56-29.865-29.981-28.365-51.818-11.248h0C148.678,246.767,113.245,312.374,91.364,388.144,80,427.492,101.172,441.79,133.956,450.817c29.9,8.232,46.8-11.51,63.757-28.644,21.57-21.8,41.442-31.888,72.357-14.692,67.5,37.548,68.212,36.284,34.43,108.528l-39.339,2.18h0c-21.229-.372-42.457-1.036-63.686-1.054-39.811-.033-81.1-8.622-116.372,19.018-21.923,20.733-7.127,45.843-8.3,69.05h0c5.319,57.936,24.292,111.668,54.08,161.117,10.666,17.7,25.789,35.364,51.441,31.515,24.8-3.722,35.748-20.72,39.923-43.551q1.992-23.5,3.983-46.994h0l0,0c3.21-7.438,5.307-15.639,9.823-22.183,18.611-26.972,44.486-54.471,76.677-43.4,33.073,11.372,43.4,80.9,22.5,108.527q-44.555,58.889-91.12,116.257c-15.375,18.985-17.962,35.221,5.2,49.008,52.386,31.18,103.426,65.389,165.48,75.611,19.145,5.054,38.152,9.058,58.432,8.445,39.256-1.186,54.872-16.97,39.2-55.626h0v0c-2.872-23.512-26.984-26.479-39.424-40.62-18.028-20.492-49.549-33.9-42.308-68.762,3.337-16.07,4.918-48.212,26.655-38.017,47.367,22.218,105.242-21.849,144.614,26.077,8.538,10.394,7.47,28.3,11.928,42.407,7.928,25.071,14.624,50.832,25.638,74.553,13.876,29.885,37.472,48.051,72.021,32.961,48.282-21.087,95.793-44.012,143.019-67.383,37.059-18.34,48.71-50.859,34.572-87.26-15.876-40.875-48.438-30.379-79.1-16.794-6.022,2.668-12.276,4.847-18.507,7.012-29.5,10.247-59.283,14.987-78.558-16.286-16.556-26.86-37.327-55.18,6.678-80.661,15.26-8.836,23.314-30.02,34.659-45.564h0l38.135.3h0c17.117,14.836,39.756,14.758,59.794,21.5,100.3,33.759,123.017,20.517,144.586-82.822,2-9.579,2.709-19.425,4.017-29.147C1009.036,539.255,1006.864,503.135,1000.437,467.031ZM657,565.708c-11.124,44.111-28.308,84.891-63.988,115.5-21.532,14.684-43.715,10.811-66.062,2.3-42.906-17.1-92.551-25-108.457-78.916-15.547-28.232-11.108-57.07-2.626-86.031,16.609-38.255,35.182-74.771,79.208-88.745,18.819-14.223,38.522-9.573,58.328-2.713,49.8,19.44,86.844,52.5,109.049,101.392C675.755,543.1,667.179,554.522,657,565.708Z" transform="translate(-21 -80)"/><path class="cls-2" d="M547.1,475.4c45.418,1.524,69.849,28.134,67.485,73.5-2.421,46.47-32.283,77.349-74.242,76.767-43.908-.608-75.994-33.031-74.818-75.606C466.729,506.413,502.255,473.9,547.1,475.4Z" transform="translate(-21 -80)"/></g><g id="Layer_1" data-name="Layer 1"><rect class="cls-3" x="218" y="236" width="613" height="451"/><polyline class="cls-4" points="902.619 575.352 1023.5 454.472 1023.5 453.977 902.619 333.096"/><path d="M196.038,724.492V355.616a4.728,4.728,0,0,1,.572-2.253,6.741,6.741,0,0,0,.734-1.755c9.153-42.453,42.885-69.691,86.361-69.691q257.188,0,514.377,0a85.247,85.247,0,0,1,81.8,59.978c1.252,3.951,2.439,7.922,3.651,11.885a4.687,4.687,0,0,1,.206,1.376V724.033a4.728,4.728,0,0,1-.572,2.253,6.768,6.768,0,0,0-.734,1.756c-9.147,42.424-42.918,69.69-86.369,69.69q-257.185,0-514.37,0a85.249,85.249,0,0,1-81.8-59.978c-1.252-3.95-2.439-7.922-3.651-11.885A4.715,4.715,0,0,1,196.038,724.492Zm430.731-181.32a4.734,4.734,0,0,0-6.534-.56c-.773.625-1.528,1.244-2.269,1.879-21.074,18.029-42.072,36.147-63.229,54.078-9.653,8.18-20.053,8.1-29.787-.069-11.99-10.066-23.8-20.35-35.694-30.526-9.82-8.4-19.653-16.781-29.617-25.285a4.733,4.733,0,0,0-6.629.478L275.347,746.254a4.731,4.731,0,0,0,2.891,7.795,48.247,48.247,0,0,0,6.98.625q254.757.129,509.513,0a46.233,46.233,0,0,0,6.832-.622,4.732,4.732,0,0,0,2.873-7.793Zm-83.8,8.408L796.136,334.547a4.723,4.723,0,0,0-2.917-8.309c-70.869-2.17-435.623-1.807-506.182.424a4.72,4.72,0,0,0-2.912,8.307L536.814,551.58A4.728,4.728,0,0,0,542.965,551.58Zm287.62,158.577,10.124-3.641v-.14c.087-28.86.047-57.72.047-86.58q0-122.823-.075-245.645a85.038,85.038,0,0,0-.79-10.175,4.726,4.726,0,0,0-7.763-3.026L660.246,508.222a4.725,4.725,0,0,0-.479,6.7ZM247.549,360.811a4.727,4.727,0,0,0-7.752,2.883,52.728,52.728,0,0,0-.7,7.669q-.147,168.486-.017,336.973c0,.359.011.718.03,1.08a4.721,4.721,0,0,0,8.274,2.768L419.978,514.9a4.726,4.726,0,0,0-.485-6.7Z" transform="translate(-21 -80)"/><polyline class="cls-4" points="135.381 594.043 14.5 473.162 14.5 472.668 135.381 351.787"/></g></svg>